<?xml version="1.0" encoding="UTF-8"?><svg id="Layer_1" xmlns="http://www.w3.org/2000/svg" width="969.2473" height="901.138" viewBox="0 0 969.2473 901.138"><defs><style>.cls-1{fill:#5590aa;stroke-width:0px;}</style></defs><path id="Path_6686" class="cls-1" d="M689.9515,260.0261c0-126.2222-107.9267-177.2892-200.4139-177.2892-65.5199,0-105.9881,12.5259-144.5292,34.687-22.1611,13.4894-42.3952,35.6505-42.3952,61.6658s21.1976,54.9211,60.7023,54.9211c12.5259,0,21.1976-3.8541,30.8329-8.6804,20.2341-14.4529,41.4317-28.9059,79.9728-28.9059,43.3588,0,82.8634,19.2706,82.8634,78.0458,0,46.2493-33.7235,68.4105-79.0093,105.0333-60.7023,47.2129-74.1917,79.0093-74.1917,136.821,0,38.5411,25.0517,61.6658,60.7023,61.6658s59.7387-24.0882,59.7387-54.9211c0-32.76,5.787-50.1035,68.4105-99.2463,50.0977-39.5018,97.3164-83.8241,97.3164-163.7969ZM380.6589,717.702c.0287,46.2892,37.5464,83.8069,83.8356,83.8356,46.445.3758,84.4008-36.9708,84.7766-83.4158.0011-.1399.0019-.2799.0023-.4198.2628-46.5593-37.2679-84.5161-83.8272-84.7789-.3172-.0018-.6345-.0018-.9517,0-46.4463.1439-83.9819,37.9127-83.838,84.3591.0004.1399.0012.2799.0024.4198Z"/></svg>