<?xml version="1.0" encoding="utf-8"?>
<!-- Generator: Adobe Illustrator 28.3.0, SVG Export Plug-In . SVG Version: 6.00 Build 0)  -->
<svg version="1.1" id="Layer_1" xmlns="http://www.w3.org/2000/svg" xmlns:xlink="http://www.w3.org/1999/xlink" x="0px" y="0px"
	 viewBox="0 0 100 100" style="enable-background:new 0 0 100 100;" xml:space="preserve">
<style type="text/css">
	.st0{fill:#5590AA;}
</style>
<path id="Path_6686" class="st0" d="M79.4,26.5c0-16.3-13.9-22.9-25.9-22.9c-8.5,0-13.7,1.6-18.7,4.5c-2.9,1.7-5.5,4.6-5.5,8
	s2.7,7.1,7.8,7.1c1.6,0,2.7-0.5,4-1.1c2.6-1.9,5.4-3.7,10.3-3.7c5.6,0,10.7,2.5,10.7,10.1c0,6-4.4,8.8-10.2,13.6
	c-7.8,6.1-9.6,10.2-9.6,17.7c0,5,3.2,8,7.8,8s7.7-3.1,7.7-7.1c0-4.2,0.7-6.5,8.8-12.8C73.3,42.5,79.4,36.8,79.4,26.5z M39.5,85.6
	c0,6,4.9,10.8,10.8,10.8c6,0,10.9-4.8,11-10.8c0,0,0,0,0-0.1c0-6-4.8-10.9-10.8-11c0,0-0.1,0-0.1,0C44.3,74.7,39.5,79.6,39.5,85.6
	C39.5,85.6,39.5,85.6,39.5,85.6z"/>
</svg>
