<?xml version="1.0" encoding="UTF-8"?><svg id="Layer_1" xmlns="http://www.w3.org/2000/svg" width="50.0438" height="92.8688" viewBox="0 0 50.0438 92.8688"><defs><style>.cls-1{fill:#5590aa;stroke-width:0px;}</style></defs><path id="Path_6686" class="cls-1" d="M50.0438,22.9056C50.0438,6.5978,36.0997,0,24.1505,0,15.6854,0,10.4569,1.6183,5.4774,4.4815,2.6142,6.2244,0,9.0876,0,12.4487s2.7387,7.0958,7.8427,7.0958c1.6183,0,2.7387-.4979,3.9836-1.1215,2.6142-1.8673,5.3529-3.7346,10.3324-3.7346,5.6019,0,10.7059,2.4897,10.7059,10.0834,0,5.9754-4.357,8.8386-10.2079,13.5702-7.8427,6.0999-9.5855,10.2079-9.5855,17.6772,0,4.9795,3.2367,7.9672,7.8427,7.9672s7.7182-3.1122,7.7182-7.0958c0-4.2326.7477-6.4733,8.8386-12.8225,6.4726-5.1036,12.5732-10.83,12.5732-21.1624ZM10.0835,82.037c.0037,5.9805,4.851,10.8278,10.8315,10.8315,6.0007.0485,10.9045-4.7766,10.9531-10.7773.0001-.0181.0002-.0362.0003-.0542.034-6.0154-4.815-10.9194-10.8304-10.9534-.041-.0002-.082-.0002-.123,0-6.0008.0186-10.8504,4.8983-10.8318,10.8991,0,.0181.0002.0362.0003.0542Z"/></svg>