<?xml version="1.0" encoding="utf-8"?>
<!-- Generator: Adobe Illustrator 28.3.0, SVG Export Plug-In . SVG Version: 6.00 Build 0)  -->
<svg version="1.1" id="Layer_1" xmlns="http://www.w3.org/2000/svg" xmlns:xlink="http://www.w3.org/1999/xlink" x="0px" y="0px"
	 viewBox="0 0 30 31" style="enable-background:new 0 0 30 31;" xml:space="preserve">
<path d="M15,23.3C15,23.3,15,23.3,15,23.3c-0.8,0-1.4-0.6-1.4-1.4l0.1-12.8c0-0.8,0.6-1.4,1.4-1.4c0,0,0,0,0,0
	c0.8,0,1.4,0.6,1.4,1.4l-0.1,12.8C16.3,22.6,15.7,23.3,15,23.3z"/>
<path d="M21.4,16.9C21.4,16.9,21.4,16.9,21.4,16.9L8.6,16.8c-0.8,0-1.4-0.6-1.4-1.4c0-0.8,0.6-1.4,1.4-1.4c0,0,0,0,0,0l12.8,0.1
	c0.8,0,1.4,0.6,1.4,1.4C22.7,16.3,22.1,16.9,21.4,16.9z"/>
</svg>
