<?xml version="1.0" encoding="UTF-8"?><svg id="Layer_1" xmlns="http://www.w3.org/2000/svg" width="15.5107" height="15.512" viewBox="0 0 15.5107 15.512"><defs><style>.cls-1{fill:#000;stroke-width:0px;}</style></defs><path class="cls-1" d="M7.7238,15.512h-.0067c-.7595-.004-1.3726-.6218-1.3685-1.382l.0638-12.7615c.004-.7575.6191-1.3685,1.3753-1.3685h.0067c.7595.004,1.3719.6225,1.3679,1.382l-.0631,12.7615c-.004.7575-.6185,1.3685-1.3753,1.3685Z"/><path class="cls-1" d="M14.1354,9.1635h-.0067l-12.7601-.0645C.6091,9.095-.004,8.4759,0,7.717c.004-.7575.6191-1.3685,1.3753-1.3685h.0067l12.7601.0645c.7602.004,1.3726.6225,1.3685,1.382-.004.7575-.6191,1.3685-1.3753,1.3685Z"/></svg>